Coordinates
version=1
nRows=9
nColumns=24
inDegrees=yes

Units are S.I. units (second, meters, Newtons, ...)
Angles are in degrees.

endheader
time	pelvis_tilt	pelvis_list	pelvis_rotation	pelvis_tx	pelvis_ty	pelvis_tz	hip_flexion_r	hip_adduction_r	hip_rotation_r	knee_angle_r	ankle_angle_r	subtalar_angle_r	mtp_angle_r	hip_flexion_l	hip_adduction_l	hip_rotation_l	knee_angle_l	ankle_angle_l	subtalar_angle_l	mtp_angle_l	lumbar_extension	lumbar_bending	lumbar_rotation
      4.90000000	      4.03367162	      0.45493113	     10.67064145	      0.08651766	      1.05193373	     -0.23894792	      6.88521084	      3.17576790	    -14.11033709	    -17.97175211	     11.22961322	    -21.06040904	      0.00000000	      6.70008954	     -0.90197599	      9.26622364	    -63.71935855	    -18.54874435	    -40.50767801	      0.00000000	    -17.17718375	     -1.65378126	    -10.17360987
      4.91000000	      3.88413407	      0.94642427	     10.56786123	      0.09709814	      1.05364069	     -0.23833526	      6.03038465	      2.89391275	    -13.83319921	    -17.38319876	     11.37560472	    -21.13982961	      0.00000000	      8.01061925	      0.16845124	      9.62991650	    -63.63884657	    -17.13607176	    -41.17516353	      0.00000000	    -17.28405029	     -2.32044835	     -9.69313315
      4.92000000	      3.70369267	      1.30100232	     10.51019284	      0.10759332	      1.05513043	     -0.23784555	      5.20411642	      2.72270026	    -13.73258473	    -16.72181823	     11.46941218	    -21.15510426	      0.00000000	      9.37639758	      1.05846154	      9.90643976	    -63.38517287	    -15.24772643	    -41.02897656	      0.00000000	    -17.32351620	     -2.80232364	     -9.27192393
      4.93000000	      3.53306831	      1.65201225	     10.49359863	      0.11800371	      1.05650809	     -0.23755291	      4.35723345	      2.51537255	    -13.85118273	    -16.03865559	     11.65601415	    -20.91334537	      0.00000000	     10.67459828	      1.94065695	     10.15981063	    -62.87840059	    -13.71287631	    -40.97906443	      0.00000000	    -17.37376315	     -3.23508752	     -8.99954794
      4.94000000	      3.37542088	      1.94924877	     10.47941462	      0.12833020	      1.05771511	     -0.23737147	      3.51166748	      2.33903770	    -14.11948041	    -15.35545098	     11.91527332	    -20.50487534	      0.00000000	     11.91904730	      2.73601024	     10.33602060	    -62.14453856	    -12.19285650	    -40.71828902	      0.00000000	    -17.43384651	     -3.57565841	     -8.77102762
      4.95000000	      3.24887816	      2.20232513	     10.41017984	      0.13858891	      1.05877084	     -0.23721707	      2.65504738	      2.20153059	    -14.40844112	    -14.68387995	     12.18677528	    -20.00169851	      0.00000000	     13.07653994	      3.43204000	     10.38424595	    -61.17288797	    -10.70978105	    -40.29930632	      0.00000000	    -17.52442975	     -3.84957542	     -8.53684861
      4.96000000	      3.16015155	      2.41186625	     10.25493288	      0.14879087	      1.05968149	     -0.23704105	      1.79271879	      2.10782380	    -14.65267759	    -14.04356707	     12.44678580	    -19.48199536	      0.00000000	     14.13324407	      4.01221027	     10.27891576	    -59.96046966	     -9.27693459	    -39.75347448	      0.00000000	    -17.65261482	     -4.06611892	     -8.23975916
      4.97000000	      3.11323884	      2.59102910	      9.98150070	      0.15896694	      1.06046889	     -0.23677008	      0.91647013	      2.05327121	    -14.76261708	    -13.43018930	     12.65901803	    -19.00786828	      0.00000000	     15.07207702	      4.47168421	      9.99600543	    -58.49972736	     -7.96400323	    -39.15263251	      0.00000000	    -17.82302136	     -4.26369910	     -7.87263717
      4.98000000	      3.10036591	      2.72898167	      9.59745050	      0.16911987	      1.06113056	     -0.23642674	      0.04608653	      2.03657426	    -14.78726216	    -12.86180222	     12.81150915	    -18.60327899	      0.00000000	     15.89955856	      4.79853836	      9.54915430	    -56.79820101	     -6.75816469	    -38.49373833	      0.00000000	    -18.01733764	     -4.41939816	     -7.37655978
